<svg xmlns="http://www.w3.org/2000/svg" width="48" height="48" viewBox="0 0 48 48" fill="none">
  <rect width="48" height="48" rx="11" fill="url(#bg)"/>
  <path d="M14 9a2 2 0 0 1 2-2h10l8 8v22a2 2 0 0 1-2 2H16a2 2 0 0 1-2-2V9z" fill="#ffffff"/>
  <path d="M26 7v6a2 2 0 0 0 2 2h6L26 7z" fill="#cfe0ff"/>
  <rect x="18" y="22" width="12" height="2.4" rx="1.2" fill="#a9c1f5"/>
  <rect x="18" y="27" width="8" height="2.4" rx="1.2" fill="#a9c1f5"/>
  <g transform="translate(27 25) rotate(45)">
    <rect x="-2" y="-2.5" width="3" height="5" fill="#fde68a"/>
    <rect x="1" y="-2.5" width="13" height="5" fill="#2563eb"/>
    <path d="M14 -2.5 L19 0 L14 2.5 Z" fill="#1d4ed8"/>
  </g>
  <defs>
    <linearGradient id="bg" x1="0" y1="0" x2="48" y2="48" gradientUnits="userSpaceOnUse">
      <stop stop-color="#4f8ef7"/>
      <stop offset="1" stop-color="#1d4ed8"/>
    </linearGradient>
  </defs>
</svg>
